<?xml version="1.0" standalone="no"?>
<!DOCTYPE svg PUBLIC "-//W3C//DTD SVG 20010904//EN"
 "http://www.w3.org/TR/2001/REC-SVG-20010904/DTD/svg10.dtd">
<svg version="1.0" xmlns="http://www.w3.org/2000/svg"
 width="784.000000pt" height="784.000000pt" viewBox="0 0 784.000000 784.000000"
 preserveAspectRatio="xMidYMid meet">
<metadata>
Created by potrace 1.14, written by Peter Selinger 2001-2017
</metadata>
<g transform="translate(0.000000,784.000000) scale(0.100000,-0.100000)"
fill="#000000" stroke="none">
<path d="M4840 6579 c-250 -30 -452 -90 -664 -196 -525 -262 -882 -740 -991
-1328 -4 -19 -12 -20 -282 -20 -314 0 -377 -8 -623 -75 -361 -98 -611 -239
-859 -483 -165 -162 -280 -321 -391 -539 -136 -265 -225 -566 -261 -876 -17
-157 -7 -443 20 -571 113 -521 456 -1003 948 -1331 646 -430 1374 -507 1981
-208 275 135 545 367 702 605 118 179 233 425 291 626 12 42 28 77 34 77 7 0
36 -5 66 -10 234 -45 496 -27 764 50 522 151 1083 575 1367 1033 275 442 368
976 267 1534 -88 490 -321 914 -660 1198 -312 262 -710 435 -1149 501 -126 18
-455 26 -560 13z m425 -99 c884 -83 1539 -558 1798 -1305 177 -513 153 -1138
-64 -1591 -121 -255 -322 -492 -617 -730 -409 -329 -837 -504 -1272 -521 -131
-5 -334 8 -347 21 -2 2 8 61 22 130 14 70 25 129 25 130 0 1 33 -4 73 -11 127
-24 404 -28 555 -9 449 58 830 233 1107 510 284 284 443 647 470 1071 25 393
-132 905 -400 1305 -116 174 -193 267 -337 405 -237 229 -481 372 -785 461
-158 45 -216 55 -378 61 -178 6 -281 -7 -435 -53 -488 -148 -999 -666 -1225
-1239 -26 -66 -48 -121 -49 -121 0 -1 -35 4 -76 10 -86 14 -83 4 -49 138 106
424 384 813 749 1050 226 147 500 247 761 277 52 6 108 13 124 15 67 7 247 5
350 -4z m129 -199 c121 -33 323 -109 421 -158 598 -300 1052 -986 1136 -1718
44 -391 -94 -805 -376 -1128 -265 -304 -643 -502 -1090 -573 -138 -22 -429
-25 -568 -5 l-99 14 8 61 c13 107 7 394 -10 519 -40 282 -128 514 -269 703
-53 71 -166 277 -203 371 -90 227 -277 394 -574 513 -63 26 -151 57 -195 70
-44 12 -83 24 -87 27 -8 4 30 108 78 212 174 378 574 800 924 976 90 45 252
101 352 120 182 36 412 34 552 -4z"/>
</g>
</svg>
