<?xml version="1.0" encoding="UTF-8" standalone="no"?>
<!-- Created with Inkscape (http://www.inkscape.org/) -->

<svg
   width="135.8474"
   height="135.73125"
   viewBox="0 0 135.8474 135.73125"
   version="1.1"
   id="svg5"
   xml:space="preserve"
   inkscape:version="1.2 (dc2aedaf03, 2022-05-15)"
   sodipodi:docname="book-pink.svg"
   xmlns:inkscape="http://www.inkscape.org/namespaces/inkscape"
   xmlns:sodipodi="http://sodipodi.sourceforge.net/DTD/sodipodi-0.dtd"
   xmlns="http://www.w3.org/2000/svg"
   xmlns:svg="http://www.w3.org/2000/svg"><sodipodi:namedview
     id="namedview7"
     pagecolor="#ffffff"
     bordercolor="#000000"
     borderopacity="0.25"
     inkscape:showpageshadow="2"
     inkscape:pageopacity="0.0"
     inkscape:pagecheckerboard="0"
     inkscape:deskcolor="#d1d1d1"
     inkscape:document-units="px"
     showgrid="false"
     inkscape:zoom="0.71624579"
     inkscape:cx="117.27818"
     inkscape:cy="267.36632"
     inkscape:window-width="1920"
     inkscape:window-height="991"
     inkscape:window-x="-9"
     inkscape:window-y="-9"
     inkscape:window-maximized="1"
     inkscape:current-layer="layer1" /><defs
     id="defs2" /><g
     inkscape:label="Vrstva 1"
     inkscape:groupmode="layer"
     id="layer1"
     transform="translate(-29.656762,-73.615715)"><path
       d="m 29.789053,131.74468 v 56.22395 c 0,3.77032 3.074459,6.94532 7.011459,7.14375 12.916958,0.66146 40.666458,3.33375 56.488541,14.07584 V 138.62384 C 77.78447,128.11989 50.953074,125.28884 37.68422,124.54801 c -4.299479,-0.23812 -7.895167,3.06917 -7.895167,7.19667 z m 127.582077,-7.19667 c -13.25298,0.75353 -40.03145,3.56394 -55.32437,14.04673 -0.26458,0.0291 -0.29104,0.0556 -0.29104,0.10848 v 70.51146 c 15.88558,-10.68652 43.57687,-13.43025 56.48854,-14.097 3.94229,-0.21696 7.01146,-3.39196 7.01146,-7.14905 v -56.22395 c 0,-4.1275 -3.59834,-7.43479 -7.88459,-7.19667 z M 122.92239,99.148006 c 0,-14.02292 -11.37709,-25.4 -25.400004,-25.4 -14.022916,0 -25.4,11.37708 -25.4,25.4 0,14.022924 11.377084,25.400004 25.4,25.400004 14.022914,0 25.400004,-11.37708 25.400004,-25.400004 z"
       id="path17"
       style="fill:#c16877;fill-opacity:1;stroke:#7d8f87;stroke-width:0.264583;stroke-opacity:1" /></g></svg>
