<svg xmlns="http://www.w3.org/2000/svg" xmlns:xlink="http://www.w3.org/1999/xlink" width="500" zoomAndPan="magnify" viewBox="0 0 375 374.999991" height="500" preserveAspectRatio="xMidYMid meet" version="1.0"><defs><clipPath id="id1"><path d="M 112.5 116.96875 L 262.5 116.96875 L 262.5 210.71875 L 112.5 210.71875 Z M 112.5 116.96875 " clip-rule="nonzero"/></clipPath></defs><rect x="-37.5" width="450" fill="#ffffff" y="-37.499999" height="449.999989" fill-opacity="1"/><rect x="-37.5" width="450" fill="#ffffff" y="-37.499999" height="449.999989" fill-opacity="1"/><rect x="-37.5" width="450" fill="#ffffff" y="-37.499999" height="449.999989" fill-opacity="1"/><g clip-path="url(#id1)"><path fill="#7d8f87" d="M 143.75 151.34375 L 143.75 166.96875 L 231.25 166.96875 L 231.25 151.34375 C 231.25 142.730469 238.257812 135.71875 246.875 135.71875 L 250 135.71875 L 250 126.34375 C 250 121.175781 245.792969 116.96875 240.625 116.96875 L 134.375 116.96875 C 129.207031 116.96875 125 121.175781 125 126.34375 L 125 135.71875 L 128.125 135.71875 C 136.742188 135.71875 143.75 142.730469 143.75 151.34375 Z M 253.125 141.96875 L 246.875 141.96875 C 241.707031 141.96875 237.5 146.175781 237.5 151.34375 L 237.5 170.09375 C 237.5 171.816406 236.101562 173.21875 234.375 173.21875 L 140.625 173.21875 C 138.898438 173.21875 137.5 171.816406 137.5 170.09375 L 137.5 151.34375 C 137.5 146.175781 133.292969 141.96875 128.125 141.96875 L 121.875 141.96875 C 116.707031 141.96875 112.5 146.175781 112.5 151.34375 L 112.5 188.84375 C 112.5 194.011719 116.707031 198.21875 121.875 198.21875 L 125 198.21875 L 125 207.59375 C 125 209.316406 126.398438 210.71875 128.125 210.71875 L 146.875 210.71875 C 148.601562 210.71875 150 209.316406 150 207.59375 L 150 198.21875 L 225 198.21875 L 225 207.59375 C 225 209.316406 226.398438 210.71875 228.125 210.71875 L 246.875 210.71875 C 248.601562 210.71875 250 209.316406 250 207.59375 L 250 198.21875 L 253.125 198.21875 C 258.292969 198.21875 262.5 194.011719 262.5 188.84375 L 262.5 151.34375 C 262.5 146.175781 258.292969 141.96875 253.125 141.96875 Z M 253.125 141.96875 " fill-opacity="1" fill-rule="nonzero"/></g></svg>