<?xml version="1.0" encoding="UTF-8" standalone="no"?>
<!-- Created with Inkscape (http://www.inkscape.org/) -->

<svg
   width="169.33331"
   height="118.53333"
   viewBox="0 0 169.33331 118.53333"
   version="1.1"
   id="svg5"
   xml:space="preserve"
   inkscape:version="1.2 (dc2aedaf03, 2022-05-15)"
   sodipodi:docname="couch-pink.svg"
   xmlns:inkscape="http://www.inkscape.org/namespaces/inkscape"
   xmlns:sodipodi="http://sodipodi.sourceforge.net/DTD/sodipodi-0.dtd"
   xmlns="http://www.w3.org/2000/svg"
   xmlns:svg="http://www.w3.org/2000/svg"><sodipodi:namedview
     id="namedview7"
     pagecolor="#ffffff"
     bordercolor="#000000"
     borderopacity="0.25"
     inkscape:showpageshadow="2"
     inkscape:pageopacity="0.0"
     inkscape:pagecheckerboard="0"
     inkscape:deskcolor="#d1d1d1"
     inkscape:document-units="px"
     showgrid="false"
     inkscape:zoom="0.71624579"
     inkscape:cx="142.40921"
     inkscape:cy="448.86826"
     inkscape:window-width="1920"
     inkscape:window-height="991"
     inkscape:window-x="-9"
     inkscape:window-y="-9"
     inkscape:window-maximized="1"
     inkscape:current-layer="layer1"
     showguides="true"><sodipodi:guide
       position="-864.02996,-699.25144"
       orientation="-0.70710678,-0.70710678"
       id="guide10624"
       inkscape:locked="false" /></sodipodi:namedview><defs
     id="defs2" /><g
     inkscape:label="Vrstva 1"
     inkscape:groupmode="layer"
     id="layer1"
     transform="translate(-3.9900516,-3.1624399)"><path
       d="m 160.62337,53.962444 c -7.01146,0 -12.7,5.68854 -12.7,12.7 v 21.16666 H 29.390052 v -21.16666 c 0,-7.01146 -5.685896,-12.7 -12.7,-12.7 -7.0141044,0 -12.7000004,5.68854 -12.7000004,12.7 v 50.799996 c 0,2.32833 1.895475,4.23333 4.233333,4.23333 H 25.156719 c 2.337858,0 3.995208,-1.89548 3.995208,-4.23333 l 0.238125,-4.23334 H 147.92337 v 4.23334 c 0,2.33785 1.89548,4.23333 4.23334,4.23333 h 16.93333 c 2.33786,0 4.23333,-1.89548 4.23333,-4.23333 V 66.662444 c 0,-7.01146 -5.68854,-12.7 -12.7,-12.7 z m -122.766651,12.7 v 12.7 H 139.45671 v -12.7 c 0,-10.22086 7.28398,-18.77219 16.93333,-20.73804 v -8.8953 c 0,-18.703394 -15.16327,-33.8666641 -33.86666,-33.8666641 H 54.551927 c -18.703396,0 -33.866667,15.1632701 -33.866667,33.8666641 l 0.238125,8.89 c 9.657292,1.98438 16.933334,10.53042 16.933334,20.74334 z"
       id="path2701"
       style="fill:#c16877;fill-opacity:1;stroke-width:0.264583" /></g></svg>
