<?xml version="1.0" encoding="UTF-8" standalone="no"?>
<svg
   width="91.91539"
   zoomAndPan="magnify"
   viewBox="0 0 68.93656 73.134345"
   height="97.512436"
   preserveAspectRatio="xMidYMid"
   version="1.0"
   id="svg2615"
   sodipodi:docname="favicon.svg"
   inkscape:version="1.2 (dc2aedaf03, 2022-05-15)"
   xmlns:inkscape="http://www.inkscape.org/namespaces/inkscape"
   xmlns:sodipodi="http://sodipodi.sourceforge.net/DTD/sodipodi-0.dtd"
   xmlns="http://www.w3.org/2000/svg"
   xmlns:svg="http://www.w3.org/2000/svg">
  <sodipodi:namedview
     id="namedview2617"
     pagecolor="#ffffff"
     bordercolor="#000000"
     borderopacity="0.25"
     inkscape:showpageshadow="2"
     inkscape:pageopacity="0.0"
     inkscape:pagecheckerboard="true"
     inkscape:deskcolor="#d1d1d1"
     showgrid="false"
     inkscape:zoom="6.432"
     inkscape:cx="114.89428"
     inkscape:cy="24.020522"
     inkscape:window-width="1920"
     inkscape:window-height="991"
     inkscape:window-x="-9"
     inkscape:window-y="-9"
     inkscape:window-maximized="1"
     inkscape:current-layer="svg2615" />
  <defs
     id="defs2585">
    <clipPath
       id="id1">
      <path
         d="m 112.50781,157.36328 h 38.44141 v 39.94141 h -38.44141 z m 0,0"
         clip-rule="nonzero"
         id="path2576" />
    </clipPath>
    <clipPath
       id="id2">
      <path
         d="m 223,145 h 39.5 v 42 H 223 Z m 0,0"
         clip-rule="nonzero"
         id="path2579" />
    </clipPath>
    <clipPath
       id="id3">
      <path
         d="m 120.75,176.71094 h 38.60547 v 40.79687 H 120.75 Z m 0,0"
         clip-rule="nonzero"
         id="path2582" />
    </clipPath>
  </defs>
  <path
     fill="#ca8477"
     d="m 38.518375,32.866025 c -1.86329,-6.48047 -13.51954,-7.77734 -19.11329,-6.05078 -9.32421,2.16016 -13.9882797,10.80469 -14.4531197,19.01563 -0.93359,14.26171 19.1132797,27.23046 31.7031197,15.5625 6.0586,-5.1875 8.85547,-19.44922 3.26172,-25.9336"
     fill-opacity="1"
     fill-rule="nonzero"
     id="path2595"
     style="fill:#c16878;fill-opacity:1" />
  <g
     clip-path="url(#id2)"
     id="g2605"
     transform="translate(-196.64178,-134.14178)">
    <path
       fill="#959595"
       d="m 232.29687,181.9375 c -5.68359,-4.35547 -8.08203,-12.37109 -7.73437,-19.30078 0.30859,-6.14453 3.97656,-11.71485 9.55469,-14.29297 4.98437,-2.30469 10.90625,-2 15.9375,-0.0352 5.73047,2.23828 9.55468,6.75782 10.9414,12.72657 0.85938,3.70703 0.6875,7.63281 -0.52734,11.23828 -1.32422,3.92187 -4.17188,6.72656 -7.39844,9.15234 -3.37109,2.53516 -7.45312,4.18359 -11.69922,4.14844 -2.1289,-0.0195 -5.11718,-0.55469 -6.83203,-1.88672 -0.74609,-0.58594 -1.49609,-1.16797 -2.24219,-1.75 -0.33593,-0.26172 -0.28515,0.65625 -0.0391,0.84766 0.71875,0.55859 1.4336,1.11718 2.15235,1.67578 1.45703,1.13672 3.73437,1.6289 5.51171,1.89843 3.75,0.56641 7.6836,-0.55859 10.92579,-2.41796 6.1914,-3.55469 10.53906,-8.86719 11.16796,-16.14063 0.48438,-5.60156 -1.17578,-11.71484 -5.09375,-15.82422 -3.57812,-3.7539 -8.78906,-5.78125 -13.89062,-6.11719 -8.23438,-0.54687 -15.75,4.09766 -18.27734,12.08985 -1.34375,4.24219 -0.86329,9.05859 0.28125,13.28125 1.19921,4.42578 3.54296,8.73828 7.22265,11.55469 0.33985,0.26171 0.28906,-0.65625 0.0391,-0.84766"
       fill-opacity="1"
       fill-rule="nonzero"
       id="path2603" />
  </g>
  <path
     fill="#959595"
     d="m 50.604305,15.338685 c 6.73047,2.44531 11.62891,10.11719 12.15235,17.11719 0.44922,6.05468 -3.33203,11.44531 -8.64453,13.95703 -4.82422,2.27734 -10.78125,2.32422 -15.60547,0.0391 -6.8125,-3.22656 -10.28516,-12.125 -8.34766,-19.23047 1.20703,-4.42578 4.84375,-8.75781 8.70313,-11.12891 2.21875,-1.36328 4.80078,-1.96484 7.38671,-1.8789 1.58985,0.0547 2.89063,0.58594 4.35547,1.125 0.32422,0.12109 0.21094,-0.78906 -0.10547,-0.90625 -2.5625,-0.94531 -4.85546,-1.39453 -7.61718,-0.89453 -3.27735,0.58984 -6.13672,2.62109 -8.3711,5.01562 -2.24609,2.40235 -4.1289,5.41016 -4.99609,8.58985 -0.92578,3.38671 -0.45313,7.0039 0.68359,10.26953 1.89844,5.4375 5.91797,9.59765 11.5,11.0625 4.89453,1.28515 10.34375,0.41015 14.63672,-2.23047 5.25781,-3.24219 7.75391,-9.48438 6.73438,-15.50391 -1.14844,-6.75781 -5.99219,-13.91797 -12.57032,-16.30859 -0.32812,-0.11719 -0.21484,0.79297 0.10547,0.90625"
     fill-opacity="1"
     fill-rule="nonzero"
     id="path2607"
     style="fill:#7d8f87;fill-opacity:1" />
</svg>
