<?xml version="1.0" encoding="UTF-8" standalone="no"?>
<!-- Created with Inkscape (http://www.inkscape.org/) -->

<svg
   width="169.33333"
   height="135.46667"
   viewBox="0 0 169.33333 135.46667"
   version="1.1"
   id="svg6840"
   xml:space="preserve"
   inkscape:version="1.2 (dc2aedaf03, 2022-05-15)"
   sodipodi:docname="hands-mint.svg"
   xmlns:inkscape="http://www.inkscape.org/namespaces/inkscape"
   xmlns:sodipodi="http://sodipodi.sourceforge.net/DTD/sodipodi-0.dtd"
   xmlns="http://www.w3.org/2000/svg"
   xmlns:svg="http://www.w3.org/2000/svg"><sodipodi:namedview
     id="namedview6842"
     pagecolor="#ffffff"
     bordercolor="#000000"
     borderopacity="0.25"
     inkscape:showpageshadow="2"
     inkscape:pageopacity="0.0"
     inkscape:pagecheckerboard="0"
     inkscape:deskcolor="#d1d1d1"
     inkscape:document-units="px"
     showgrid="false"
     inkscape:zoom="1"
     inkscape:cx="56"
     inkscape:cy="345.5"
     inkscape:window-width="1920"
     inkscape:window-height="991"
     inkscape:window-x="-9"
     inkscape:window-y="-9"
     inkscape:window-maximized="1"
     inkscape:current-layer="layer1" /><defs
     id="defs6837" /><g
     inkscape:label="Vrstva 1"
     inkscape:groupmode="layer"
     id="layer1"
     transform="translate(-24.676619,-124.35622)"><path
       d="m 98.759952,134.93955 c 0,-5.84465 4.736038,-10.58333 10.583338,-10.58333 5.84729,0 10.58333,4.73868 10.58333,10.58333 0,5.84465 -4.73604,10.58333 -10.58333,10.58333 -5.8473,0 -10.583338,-4.73868 -10.583338,-10.58333 z m 25.347088,56.35625 c 0.44979,3.4925 -2.0373,6.6675 -5.74146,7.09083 -3.25438,0.4498 -6.42938,-2.03729 -6.85271,-5.74145 l -1.16417,-9.26042 h -2.01083 l -1.16417,9.26042 c -0.42333,3.70416 -3.59833,6.19125 -7.09083,5.74145 -3.466043,-0.42333 -5.953126,-3.59833 -5.503334,-7.09083 l 2.936875,-23.46854 -5.23875,4.18042 c -2.672292,2.51354 -6.693959,2.16958 -8.942917,-0.50271 -2.275417,-2.69875 -1.931458,-6.69396 0.740833,-8.96938 l 10.980209,-9.28687 c 2.672291,-2.24896 6.058954,-3.4925 9.577914,-3.4925 h 9.41917 c 3.51896,0 6.90562,1.24354 9.33979,3.4925 l 11.21833,9.28687 c 2.6723,2.27542 3.01625,6.27063 0.74084,8.96938 -2.24896,2.67229 -6.27063,3.01625 -8.94292,0.50271 l -5.23875,-4.18042 z m -78.263754,1.50813 15.954375,21.24604 c 2.487083,3.33375 7.249583,3.91583 10.4775,1.27 2.778125,-2.30188 3.4925,-6.53521 1.613958,-9.39271 l -5.662083,-9.47208 c -2.301875,-3.83646 -1.243542,-8.78417 2.407708,-11.32417 3.677708,-2.54 8.678333,-1.79917 11.218333,1.66687 l 12.54125,15.3723 c 4.180417,5.02708 6.482293,11.77395 6.482293,18.52083 v 30.66521 c 0,4.68312 -3.783543,8.46667 -8.466668,8.46667 h -25.4 c -2.566458,0 -5.000625,-1.16417 -6.614583,-3.41313 L 28.386077,216.64288 c -2.400829,-3.01625 -3.709458,-6.74687 -3.709458,-10.58333 v -54.42479 c 0,-5.60652 4.738687,-10.58333 10.583333,-10.58333 5.844646,0 10.583334,4.97681 10.583334,10.58333 z M 194.00995,151.87288 v 54.18667 c 0,3.83646 -1.29646,7.56708 -3.94229,10.58333 l -32.01458,39.76688 c -1.37584,2.24896 -3.81,3.41313 -6.37646,3.41313 h -25.4 c -4.68313,0 -8.46667,-3.78355 -8.46667,-8.46667 v -30.66521 c 0,-6.74688 2.30188,-13.49375 6.48229,-18.52083 l 12.30313,-15.3723 c 2.77812,-3.46604 7.77875,-4.20687 11.45646,-1.66687 3.65125,2.54 4.70958,7.48771 2.40771,11.32417 l -5.90021,9.47208 c -1.64042,2.8575 -0.92604,7.09083 1.87854,9.39271 3.20146,2.64583 7.96396,2.06375 10.45104,-1.27 l 15.95438,-21.24604 v -40.93105 c 0,-5.84464 4.73604,-10.58333 10.58333,-10.58333 5.84729,0 10.58333,4.73869 10.58333,10.58333 z"
       id="path7216"
       style="fill:#7d8f87;fill-opacity:1;stroke-width:0.264583" /></g></svg>
