<?xml version="1.0" encoding="UTF-8" standalone="no"?>
<svg
   width="170"
   zoomAndPan="magnify"
   viewBox="0 0 170 89.354843"
   height="89.354843"
   preserveAspectRatio="xMidYMid"
   version="1.0"
   id="svg1132"
   sodipodi:docname="logo-circle.svg"
   inkscape:version="1.2 (dc2aedaf03, 2022-05-15)"
   xmlns:inkscape="http://www.inkscape.org/namespaces/inkscape"
   xmlns:sodipodi="http://sodipodi.sourceforge.net/DTD/sodipodi-0.dtd"
   xmlns="http://www.w3.org/2000/svg"
   xmlns:svg="http://www.w3.org/2000/svg">
  <sodipodi:namedview
     id="namedview1134"
     pagecolor="#ffffff"
     bordercolor="#000000"
     borderopacity="0.25"
     inkscape:showpageshadow="2"
     inkscape:pageopacity="0.0"
     inkscape:pagecheckerboard="0"
     inkscape:deskcolor="#d1d1d1"
     showgrid="false"
     inkscape:zoom="1.55"
     inkscape:cx="143.87097"
     inkscape:cy="118.06452"
     inkscape:window-width="1920"
     inkscape:window-height="991"
     inkscape:window-x="-9"
     inkscape:window-y="-9"
     inkscape:window-maximized="1"
     inkscape:current-layer="svg1132" />
  <defs
     id="defs1102">
    <clipPath
       id="id1">
      <path
         d="m 112.50781,157.36328 h 38.44141 v 39.94141 h -38.44141 z m 0,0"
         clip-rule="nonzero"
         id="path1093" />
    </clipPath>
    <clipPath
       id="id2">
      <path
         d="m 223,145 h 39.5 v 42 H 223 Z m 0,0"
         clip-rule="nonzero"
         id="path1096" />
    </clipPath>
    <clipPath
       id="id3">
      <path
         d="m 120.75,176.71094 h 38.60547 v 40.79687 H 120.75 Z m 0,0"
         clip-rule="nonzero"
         id="path1099" />
    </clipPath>
  </defs>
  <rect
     x="0"
     width="170"
     fill="#ffffff"
     y="0"
     height="89.354843"
     fill-opacity="1"
     id="rect1110"
     style="stroke-width:0.273887" />
  <path
     fill="#ca8477"
     d="m 129.43436,35.475553 c -1.86329,-6.48047 -13.51954,-7.77734 -19.11329,-6.05078 -9.32421,2.16016 -13.98828,10.80469 -14.45312,19.01563 -0.93359,14.26171 19.11328,27.23046 31.70312,15.5625 6.0586,-5.1875 8.85547,-19.44922 3.26172,-25.9336"
     fill-opacity="1"
     fill-rule="nonzero"
     id="path1112"
     style="fill:#c16878;fill-opacity:1" />
  <g
     clip-path="url(#id1)"
     id="g1116"
     transform="translate(-105.7258,-131.53226)">
    <path
       fill="#789171"
       d="m 124.47656,194.81641 c 4.51953,4.99609 15.55469,1.02343 19.82031,-2.99219 7.42579,-6.05078 7.82032,-15.8711 4.63672,-23.44922 -5.42187,-13.22266 -29.11328,-16.03125 -35.30078,0 -3.16797,7.32812 0.57813,21.37109 8.44922,24.72656"
       fill-opacity="1"
       fill-rule="nonzero"
       id="path1114"
       style="fill:#7d8f87;fill-opacity:1" />
  </g>
  <path
     fill="#959595"
     d="m 81.81326,40.467743 c 6.46875,-1.86719 7.76172,-13.55078 6.03906,-19.15625 C 85.69607,11.967743 77.07107,7.2919629 68.87967,6.8271129 54.6492,5.8896129 41.71561,25.983363 53.35623,38.600553 c 5.17578,6.07422 19.40234,8.87891 25.87109,3.26953"
     fill-opacity="1"
     fill-rule="nonzero"
     id="path1118"
     style="fill:#c7c7c7;fill-opacity:1" />
  <g
     clip-path="url(#id2)"
     id="g1122"
     transform="translate(-105.7258,-131.53226)">
    <path
       fill="#959595"
       d="m 232.29687,181.9375 c -5.68359,-4.35547 -8.08203,-12.37109 -7.73437,-19.30078 0.30859,-6.14453 3.97656,-11.71485 9.55469,-14.29297 4.98437,-2.30469 10.90625,-2 15.9375,-0.0352 5.73047,2.23828 9.55468,6.75782 10.9414,12.72657 0.85938,3.70703 0.6875,7.63281 -0.52734,11.23828 -1.32422,3.92187 -4.17188,6.72656 -7.39844,9.15234 -3.37109,2.53516 -7.45312,4.18359 -11.69922,4.14844 -2.1289,-0.0195 -5.11718,-0.55469 -6.83203,-1.88672 -0.74609,-0.58594 -1.49609,-1.16797 -2.24219,-1.75 -0.33593,-0.26172 -0.28515,0.65625 -0.0391,0.84766 0.71875,0.55859 1.4336,1.11718 2.15235,1.67578 1.45703,1.13672 3.73437,1.6289 5.51171,1.89843 3.75,0.56641 7.6836,-0.55859 10.92579,-2.41796 6.1914,-3.55469 10.53906,-8.86719 11.16796,-16.14063 0.48438,-5.60156 -1.17578,-11.71484 -5.09375,-15.82422 -3.57812,-3.7539 -8.78906,-5.78125 -13.89062,-6.11719 -8.23438,-0.54687 -15.75,4.09766 -18.27734,12.08985 -1.34375,4.24219 -0.86329,9.05859 0.28125,13.28125 1.19921,4.42578 3.54296,8.73828 7.22265,11.55469 0.33985,0.26171 0.28906,-0.65625 0.0391,-0.84766"
       fill-opacity="1"
       fill-rule="nonzero"
       id="path1120" />
  </g>
  <path
     fill="#959595"
     d="m 141.52029,17.948213 c 6.73047,2.44531 11.62891,10.11719 12.15235,17.11719 0.44922,6.05468 -3.33203,11.44531 -8.64453,13.95703 -4.82422,2.27734 -10.78125,2.32422 -15.60547,0.0391 -6.8125,-3.22656 -10.28516,-12.125 -8.34766,-19.23047 1.20703,-4.42578 4.84375,-8.75781 8.70313,-11.12891 2.21875,-1.36328 4.80078,-1.96484 7.38671,-1.8789 1.58985,0.0547 2.89063,0.58594 4.35547,1.125 0.32422,0.12109 0.21094,-0.78906 -0.10547,-0.90625 -2.5625,-0.94531 -4.85546,-1.39453 -7.61718,-0.89453 -3.27735,0.58984 -6.13672,2.62109 -8.3711,5.01562 -2.24609,2.40235 -4.1289,5.41016 -4.99609,8.58985 -0.92578,3.38671 -0.45313,7.0039 0.68359,10.26953 1.89844,5.4375 5.91797,9.59765 11.5,11.0625 4.89453,1.28515 10.34375,0.41015 14.63672,-2.23047 5.25781,-3.24219 7.75391,-9.48438 6.73438,-15.50391 -1.14844,-6.75781 -5.99219,-13.91797 -12.57032,-16.30859 -0.32812,-0.11719 -0.21484,0.79297 0.10547,0.90625"
     fill-opacity="1"
     fill-rule="nonzero"
     id="path1124" />
  <g
     clip-path="url(#id3)"
     id="g1128"
     transform="translate(-105.7258,-131.53226)">
    <path
       fill="#959595"
       d="m 129.26562,212.94141 c -5.68359,-4.35547 -8.08203,-12.3711 -7.73437,-19.30469 0.30859,-6.14453 3.97266,-11.71485 9.55078,-14.29297 4.98438,-2.30469 10.91016,-2 15.94141,-0.0352 5.73047,2.24219 9.55468,6.76172 10.9375,12.72657 0.86328,3.71093 0.6914,7.63671 -0.52344,11.23828 -1.32422,3.92578 -4.17188,6.73047 -7.39844,9.15625 -3.37109,2.53125 -7.45703,4.17968 -11.69922,4.14453 -2.13281,-0.0156 -5.12109,-0.55469 -6.83203,-1.88672 -0.75,-0.58203 -1.49609,-1.16406 -2.24219,-1.74609 -0.33984,-0.26563 -0.28515,0.65234 -0.0391,0.84375 0.71485,0.5625 1.4336,1.11718 2.14844,1.67578 1.46094,1.14062 3.73828,1.6289 5.51562,1.89843 3.75,0.56641 7.6836,-0.55859 10.92579,-2.41796 6.1875,-3.55469 10.53515,-8.86719 11.16406,-16.14063 0.48437,-5.60156 -1.17188,-11.71484 -5.08985,-15.82422 -3.57812,-3.7539 -8.78906,-5.78125 -13.89453,-6.11719 -8.23047,-0.54687 -15.74609,4.10157 -18.27734,12.08985 -1.34375,4.24219 -0.86328,9.05859 0.28125,13.28125 1.20313,4.42578 3.54688,8.73828 7.22656,11.55469 0.33985,0.26171 0.28516,-0.65625 0.0391,-0.84375"
       fill-opacity="1"
       fill-rule="nonzero"
       id="path1126" />
  </g>
  <path
     fill="#959595"
     d="m 38.48514,48.952113 c 6.73047,2.44532 11.63281,10.11329 12.15234,17.11329 0.45313,6.05468 -3.32812,11.44531 -8.64453,13.95703 -4.82031,2.28125 -10.78125,2.32422 -15.60156,0.043 -6.8125,-3.22657 -10.28906,-12.12891 -8.35156,-19.23438 1.21093,-4.42187 4.84374,-8.75781 8.70703,-11.12891 2.21875,-1.36328 4.80078,-1.96484 7.38281,-1.875 1.59375,0.0547 2.89062,0.58204 4.35547,1.125 0.32812,0.1211 0.21484,-0.78906 -0.10157,-0.90625 -2.5625,-0.94921 -4.85546,-1.39453 -7.61718,-0.89843 -3.27735,0.58984 -6.13672,2.625 -8.3711,5.01562 -2.24609,2.40625 -4.13281,5.41016 -5,8.59375 -0.92187,3.38281 -0.44921,7 0.6875,10.26563 1.89844,5.4375 5.91797,9.59765 11.5,11.0625 4.89453,1.28515 10.34375,0.41406 14.63672,-2.23047 5.25781,-3.24219 7.75391,-9.48438 6.73047,-15.50391 -1.14453,-6.75781 -5.98828,-13.91797 -12.56641,-16.30469 -0.32812,-0.12109 -0.21484,0.78907 0.10157,0.90625"
     fill-opacity="1"
     fill-rule="nonzero"
     id="path1130" />
</svg>
